{"glyphs":{"0":{"ha":833,"x_min":0,"x_max":0,"o":"m 440 -22 b 42 596 199 -22 42 221 b 440 1217 42 972 199 1217 b 838 596 681 1217 838 972 b 440 -22 838 221 681 -22 m 440 33 b 643 596 568 33 643 240 b 440 1161 643 953 568 1161 b 236 596 311 1161 236 953 b 440 33 236 240 311 33 "},"1":{"ha":583,"x_min":0,"x_max":0,"o":"m 247 996 b 204 1043 247 1029 235 1043 b 135 1036 179 1043 144 1036 b 111 1060 124 1036 111 1044 b 132 1086 111 1074 118 1082 b 390 1188 188 1101 313 1142 b 410 1194 397 1192 403 1194 b 428 1181 419 1194 428 1190 l 428 140 b 529 46 428 68 476 56 b 551 22 547 43 551 33 b 528 0 551 13 546 0 b 338 8 513 0 417 8 b 147 0 258 8 163 0 b 124 22 129 0 124 13 b 146 46 124 33 128 43 b 247 140 201 56 247 68 l 247 996 "},"2":{"ha":833,"x_min":0,"x_max":0,"o":"m 703 0 b 385 4 647 0 532 4 b 79 0 253 4 142 0 b 56 19 67 0 56 7 b 69 47 56 28 57 32 b 547 933 411 481 547 694 b 376 1107 547 1051 471 1107 b 165 997 269 1107 207 1053 b 136 978 156 985 150 978 b 115 1001 126 978 115 986 b 119 1019 115 1006 117 1013 b 433 1217 147 1089 250 1217 b 742 906 619 1217 742 1094 b 244 156 742 693 561 489 l 465 156 b 707 292 658 156 681 186 b 732 319 711 308 718 319 b 751 290 749 319 751 304 b 749 151 751 272 749 221 b 751 35 749 74 751 54 b 703 0 751 7 742 0 "},"3":{"ha":833,"x_min":0,"x_max":0,"o":"m 310 -22 b 56 122 157 -22 56 39 b 128 197 56 168 85 197 b 368 42 219 197 239 42 b 581 338 493 42 581 133 b 363 607 581 514 497 607 b 224 571 293 607 240 571 b 206 597 213 571 206 579 b 224 631 206 617 210 625 b 499 1006 351 681 499 833 b 386 1128 499 1089 463 1128 b 175 1008 288 1128 214 1051 b 129 1006 163 994 142 996 b 125 1050 117 1015 114 1035 b 454 1217 176 1122 300 1217 b 679 1028 596 1217 679 1147 b 463 706 679 872 565 764 b 775 385 647 693 775 568 b 310 -22 775 139 592 -22 "},"4":{"ha":833,"x_min":0,"x_max":0,"o":"m 443 306 l 11 306 b -14 328 -3 306 -14 314 b -1 357 -14 336 -11 342 l 510 1181 b 535 1194 515 1190 524 1194 l 613 1194 b 621 1174 624 1194 629 1186 l 101 382 l 443 382 l 443 829 b 463 857 443 843 446 853 l 597 894 b 624 881 613 899 624 894 l 624 382 l 708 382 b 749 343 736 382 749 365 b 708 306 749 321 733 306 l 624 306 l 624 140 b 711 46 624 68 661 57 b 733 22 729 42 733 33 b 710 0 733 13 728 0 b 533 8 694 0 613 8 b 315 0 451 8 331 0 b 292 22 297 0 292 13 b 314 46 292 33 296 43 b 443 140 381 57 443 68 "},"5":{"ha":778,"x_min":0,"x_max":0,"o":"m 268 -22 b -42 158 89 -22 -42 60 b 32 239 -42 207 -12 239 b 310 49 135 239 135 49 b 525 386 451 49 525 164 b 301 686 525 575 443 686 b 93 581 199 686 121 608 b 51 572 81 568 65 567 b 35 603 39 578 32 586 l 132 1171 b 161 1194 135 1188 144 1194 b 386 1190 218 1193 301 1190 b 621 1194 503 1190 572 1193 b 639 1176 633 1194 639 1188 l 639 1033 b 610 1006 639 1013 629 1006 b 253 1024 574 1006 446 1024 l 210 1024 b 189 1006 197 1024 190 1017 l 142 733 b 150 721 140 725 143 721 b 161 731 157 721 151 725 b 353 782 194 749 264 782 b 721 404 567 782 721 633 b 268 -22 721 146 536 -22 "},"6":{"ha":778,"x_min":0,"x_max":0,"o":"m 222 407 b 407 35 222 163 286 35 b 558 342 507 35 558 140 b 394 642 558 539 503 642 b 226 518 322 642 264 597 b 222 407 224 482 222 444 m 28 403 b 597 1213 28 750 275 1097 b 636 1203 614 1219 628 1217 b 626 1163 644 1189 643 1171 b 244 639 404 1061 289 864 b 436 729 294 697 358 729 b 753 369 628 729 753 588 b 394 -22 753 124 611 -22 b 28 403 163 -22 28 135 "},"7":{"ha":708,"x_min":0,"x_max":0,"o":"m 497 1006 b 488 1024 503 1018 499 1024 b 29 1006 299 1019 61 1006 b 0 1033 10 1006 0 1013 l 0 1176 b 18 1194 0 1189 7 1194 b 253 1190 67 1193 136 1190 l 660 1194 b 678 1167 679 1194 686 1186 b 213 32 475 724 319 322 b 154 3 201 3 181 -6 b 125 64 126 11 115 32 b 497 1006 214 342 363 701 "},"8":{"ha":764,"x_min":0,"x_max":0,"o":"m 376 -22 b 28 299 158 -22 28 128 b 269 628 28 436 126 551 b 83 936 169 714 83 810 b 392 1217 83 1100 207 1217 b 696 960 590 1217 696 1106 b 476 685 696 857 621 768 b 735 299 604 585 735 474 b 376 -22 735 114 614 -22 m 175 301 b 399 40 175 143 263 40 b 579 228 508 40 579 114 b 319 588 579 381 446 482 b 175 301 247 543 175 431 m 239 996 b 424 728 239 885 321 810 b 550 969 503 782 550 858 b 397 1154 550 1082 490 1154 b 239 996 306 1154 239 1088 "},"9":{"ha":764,"x_min":0,"x_max":0,"o":"m 558 847 b 400 1160 558 1061 510 1160 b 222 853 283 1160 222 1054 b 386 553 222 656 278 553 b 549 665 454 553 511 593 b 558 847 556 726 558 788 m 28 825 b 386 1217 28 1071 169 1217 b 753 792 618 1217 753 1060 b 211 -18 753 435 525 94 b 172 -8 194 -25 181 -22 b 182 32 164 6 165 25 b 529 547 381 119 485 325 b 344 465 481 494 418 465 b 28 825 153 465 28 607 "}," ":{"ha":250,"x_min":0,"x_max":0,"o":""}," ":{"ha":250,"x_min":0,"x_max":0,"o":""},"A":{"ha":950,"x_min":0,"x_max":0,"o":"m 833 125 b 924 49 847 74 879 58 b 950 22 942 44 950 38 b 925 0 950 6 940 0 b 761 6 907 0 846 6 b 572 0 675 6 592 0 b 546 24 554 0 546 10 b 571 49 546 38 554 46 b 646 124 617 57 660 69 l 569 408 b 540 426 567 421 557 426 l 306 426 b 275 408 288 426 279 419 l 189 119 b 185 97 186 111 185 104 b 272 50 185 68 214 60 b 297 24 290 47 297 38 b 271 0 297 8 288 0 b 144 6 256 0 199 6 b 24 0 86 6 38 0 b 0 24 10 0 0 8 b 25 49 0 39 8 46 b 111 107 56 54 97 63 l 432 1157 b 490 1200 440 1182 456 1200 b 547 1157 525 1200 540 1182 l 833 125 m 304 507 b 311 489 300 494 303 489 l 538 489 b 546 507 546 489 549 496 l 438 913 b 425 913 433 929 429 928 l 304 507 "},"B":{"ha":818,"x_min":0,"x_max":0,"o":"m 111 1082 b 26 1147 111 1126 63 1140 b 0 1172 4 1151 0 1161 b 28 1194 0 1182 6 1194 b 219 1189 46 1194 126 1189 b 443 1194 308 1189 393 1194 b 771 914 642 1194 771 1083 b 574 643 771 783 692 682 b 818 335 719 607 818 488 b 454 0 818 132 675 0 l 219 3 b 28 0 129 3 60 0 b 0 22 6 0 0 13 b 26 47 0 33 4 43 b 111 113 63 54 111 68 l 111 1082 m 292 160 b 414 56 292 85 332 56 b 624 329 543 56 624 164 b 364 603 624 494 521 603 b 292 549 306 603 292 594 l 292 160 m 353 658 b 576 906 489 658 576 756 b 382 1139 576 1053 504 1139 b 292 1075 318 1139 292 1126 l 292 710 b 353 658 292 671 306 658 "},"C":{"ha":829,"x_min":0,"x_max":0,"o":"m 801 929 b 782 904 801 910 794 904 b 757 929 768 904 763 911 b 543 1154 717 1058 654 1154 b 236 597 357 1154 236 935 b 557 40 236 260 363 40 b 769 297 672 40 718 144 b 794 326 776 318 782 326 b 815 299 810 326 815 318 b 813 176 815 265 813 235 l 815 81 b 557 -22 815 29 704 -22 b 42 597 244 -22 42 222 b 543 1217 42 972 239 1217 b 801 1114 693 1217 801 1165 l 799 1036 l 801 929 "},"D":{"ha":994,"x_min":0,"x_max":0,"o":"m 440 56 b 779 596 663 56 779 240 b 440 1139 779 953 663 1139 b 319 1040 364 1139 319 1121 l 319 146 b 440 56 319 67 371 56 m 56 0 b 28 22 33 0 28 13 b 54 47 28 33 32 43 b 139 113 90 54 139 68 l 139 1082 b 54 1147 139 1126 90 1140 b 28 1172 32 1151 28 1161 b 56 1194 28 1182 33 1194 b 243 1189 75 1194 144 1189 b 500 1194 339 1189 433 1194 b 974 596 799 1194 974 974 b 500 0 974 219 799 0 b 264 4 438 0 350 4 b 56 0 164 4 92 0 "},"E":{"ha":772,"x_min":0,"x_max":0,"o":"m 139 1082 b 54 1147 139 1126 90 1140 b 28 1172 32 1151 28 1161 b 56 1194 28 1182 33 1194 l 182 1190 b 403 1189 261 1188 342 1189 b 696 1194 511 1189 624 1194 b 747 1153 731 1194 747 1183 b 744 1051 747 1119 744 1090 l 746 949 b 726 928 746 933 739 928 b 696 963 713 928 708 933 b 426 1135 661 1043 599 1135 b 319 1047 349 1135 319 1119 l 319 722 b 386 668 319 676 325 668 l 472 668 b 604 800 578 668 597 754 b 631 832 608 824 617 832 b 654 800 643 832 654 828 b 649 636 654 778 649 690 b 654 483 649 588 654 507 b 632 456 654 463 646 456 b 604 486 618 456 610 463 b 472 606 594 532 578 606 l 386 606 b 319 551 325 606 319 599 l 319 151 b 449 60 319 76 363 60 b 710 274 624 60 674 164 b 738 308 719 303 725 308 b 758 274 750 308 758 301 l 756 153 b 758 57 756 108 758 81 b 688 0 758 14 736 0 b 389 6 624 0 511 6 b 175 4 321 6 235 7 l 69 0 b 46 22 51 0 46 13 b 68 47 46 33 50 43 b 139 113 99 54 139 68 l 139 1082 "},"F":{"ha":761,"x_min":0,"x_max":0,"o":"m 139 1082 b 54 1147 139 1126 90 1140 b 28 1172 32 1151 28 1161 b 56 1194 28 1182 33 1194 l 182 1190 b 403 1189 261 1188 342 1189 b 696 1194 511 1189 624 1194 b 747 1153 731 1194 747 1183 b 744 1051 747 1119 744 1090 l 746 949 b 726 928 746 933 739 928 b 696 963 713 928 708 933 b 426 1135 661 1043 599 1135 b 319 1047 349 1135 319 1119 l 319 694 b 386 640 319 649 325 640 l 472 640 b 604 772 578 640 597 726 b 631 804 608 796 617 804 b 654 772 643 804 654 800 b 649 608 654 750 649 663 b 654 456 649 560 654 479 b 632 428 654 435 646 428 b 604 458 618 428 610 435 b 472 578 594 504 578 578 l 386 578 b 319 524 325 578 319 571 l 319 140 b 407 46 319 68 365 56 b 429 22 425 42 429 33 b 406 0 429 13 424 0 b 229 8 390 0 308 8 b 53 0 150 8 68 0 b 29 22 35 0 29 13 b 51 46 29 33 33 42 b 139 140 94 56 139 68 l 139 1082 "},"G":{"ha":990,"x_min":0,"x_max":0,"o":"m 846 94 b 522 -22 846 39 694 -22 b 21 585 218 -22 21 217 b 553 1217 21 968 231 1217 b 832 1114 704 1217 832 1158 b 829 1033 832 1099 829 1071 b 832 940 829 983 832 954 b 811 918 832 925 826 918 b 786 939 796 918 790 925 b 553 1154 744 1071 667 1154 b 215 585 349 1154 215 929 b 539 40 215 240 335 40 b 665 140 610 40 665 74 l 665 411 b 550 533 665 497 600 521 b 528 557 532 538 528 546 b 551 579 528 567 533 579 b 749 571 567 579 669 571 b 946 579 828 571 931 579 b 969 557 964 579 969 567 b 947 533 969 546 965 536 b 846 411 890 524 846 497 l 846 94 "},"H":{"ha":990,"x_min":0,"x_max":0,"o":"m 672 1082 b 585 1149 672 1126 628 1139 b 563 1172 567 1153 563 1161 b 586 1194 563 1182 568 1194 b 763 1186 601 1194 683 1186 b 939 1194 842 1186 924 1194 b 963 1172 957 1194 963 1182 b 940 1149 963 1161 958 1153 b 853 1082 897 1139 853 1126 l 853 140 b 926 46 853 68 896 53 b 949 22 944 42 949 33 b 925 0 949 13 943 0 b 763 8 910 0 842 8 b 600 0 683 8 615 0 b 576 22 582 0 576 13 b 599 46 576 33 581 42 b 672 140 629 53 672 68 l 672 561 b 654 579 672 574 665 579 l 336 579 b 318 561 324 579 318 572 l 318 140 b 406 46 318 68 363 56 b 428 22 424 42 428 33 b 404 0 428 13 422 0 b 228 8 389 0 307 8 b 51 0 149 8 67 0 b 28 22 33 0 28 13 b 50 46 28 33 32 42 b 138 140 92 56 138 68 l 138 1082 b 50 1149 138 1126 92 1139 b 28 1172 32 1153 28 1161 b 51 1194 28 1182 33 1194 b 228 1186 67 1194 149 1186 b 404 1194 307 1186 389 1194 b 428 1172 422 1194 428 1182 b 406 1149 428 1161 424 1153 b 318 1082 365 1139 318 1126 l 318 660 b 338 642 318 647 325 642 l 654 642 b 672 661 667 642 672 649 l 672 1082 "},"I":{"ha":456,"x_min":0,"x_max":0,"o":"m 138 1054 b 50 1149 138 1126 96 1138 b 28 1172 32 1153 28 1161 b 51 1194 28 1182 33 1194 b 228 1186 67 1194 149 1186 b 404 1194 307 1186 389 1194 b 428 1172 422 1194 428 1182 b 406 1149 428 1161 424 1153 b 318 1054 361 1138 318 1126 l 318 140 b 406 46 318 68 367 54 b 428 22 424 42 428 33 b 404 0 428 13 422 0 b 228 8 389 0 307 8 b 51 0 149 8 67 0 b 28 22 33 0 28 13 b 50 46 28 33 32 42 b 138 140 88 54 138 68 l 138 1054 "},"J":{"ha":642,"x_min":0,"x_max":0,"o":"m 324 1054 b 236 1149 324 1126 275 1139 b 214 1172 218 1153 214 1161 b 238 1194 214 1182 219 1194 b 414 1186 253 1194 335 1186 b 590 1194 493 1186 575 1194 b 614 1172 608 1194 614 1182 b 592 1149 614 1161 610 1153 b 504 1054 549 1139 504 1126 l 504 186 b 214 -244 504 -64 374 -244 b 35 -139 101 -244 35 -206 b 97 -76 35 -101 60 -76 b 249 -189 168 -76 185 -189 b 324 92 300 -189 324 -89 l 324 1054 "},"K":{"ha":988,"x_min":0,"x_max":0,"o":"m 647 1064 b 569 1151 686 1114 653 1133 b 550 1174 557 1154 550 1160 b 571 1194 550 1188 558 1194 b 729 1188 600 1194 676 1188 b 886 1194 790 1188 858 1194 b 907 1176 900 1194 907 1190 b 889 1156 907 1164 901 1158 b 753 1085 810 1135 786 1126 l 461 713 b 460 683 453 703 454 693 l 825 124 b 956 42 856 78 903 53 b 981 19 972 38 981 32 b 954 0 981 6 972 0 b 775 7 910 0 846 7 b 572 0 713 7 628 0 b 550 21 557 0 550 8 b 575 42 550 35 560 39 b 619 121 629 53 646 79 l 347 540 b 329 544 340 551 335 551 l 329 544 b 318 508 321 535 318 522 l 318 140 b 406 46 318 68 367 54 b 428 22 424 42 428 33 b 404 0 428 13 422 0 b 228 8 389 0 307 8 b 51 0 149 8 67 0 b 28 22 33 0 28 13 b 50 46 28 33 32 42 b 138 140 89 54 138 68 l 138 1054 b 50 1149 138 1126 93 1139 b 28 1172 32 1153 28 1161 b 51 1194 28 1182 33 1194 b 228 1186 67 1194 149 1186 b 404 1194 307 1186 389 1194 b 428 1172 422 1194 428 1182 b 406 1149 428 1161 424 1153 b 318 1054 367 1139 318 1126 l 318 661 b 333 656 318 643 324 643 l 647 1064 "},"L":{"ha":750,"x_min":0,"x_max":0,"o":"m 138 1054 b 50 1149 138 1128 93 1139 b 28 1172 32 1153 28 1161 b 51 1194 28 1182 33 1194 b 228 1186 67 1194 149 1186 b 404 1194 307 1186 389 1194 b 428 1172 422 1194 428 1182 b 406 1149 428 1161 424 1153 b 318 1054 364 1139 318 1128 l 318 151 b 453 60 318 76 367 60 b 694 274 603 60 658 164 b 722 308 704 303 710 308 b 743 274 735 308 743 301 l 740 153 b 743 57 740 108 743 81 b 672 0 743 14 721 0 b 388 6 608 0 510 6 b 181 4 322 6 240 7 l 54 0 b 26 22 32 0 26 13 b 53 47 26 33 31 43 b 138 113 89 54 138 68 l 138 1054 "},"M":{"ha":1160,"x_min":0,"x_max":0,"o":"m 826 929 b 818 929 826 951 824 949 b 586 164 750 686 660 374 b 533 125 576 136 561 125 b 478 164 504 125 488 136 b 232 928 396 397 307 685 b 224 926 226 949 224 946 l 207 140 b 319 46 206 68 261 57 b 342 22 338 43 342 33 b 318 0 342 13 336 0 b 182 8 303 0 242 8 b 44 0 135 8 60 0 b 21 22 26 0 21 13 b 43 46 21 33 25 42 b 131 140 83 54 129 68 l 150 1067 b 68 1143 151 1113 129 1131 b 40 1171 50 1147 40 1156 b 64 1194 40 1186 50 1194 b 199 1192 81 1194 119 1192 b 290 1194 240 1192 271 1194 b 360 1139 321 1194 347 1181 l 575 410 b 589 410 581 393 585 394 l 799 1146 b 849 1194 811 1190 821 1194 b 960 1192 858 1194 910 1192 b 1093 1194 1035 1192 1076 1194 b 1119 1172 1113 1194 1119 1182 b 1096 1147 1119 1161 1115 1151 b 1004 1067 1046 1136 1003 1121 l 1022 140 b 1110 46 1024 68 1067 57 b 1132 22 1128 42 1132 33 b 1108 0 1132 13 1126 0 b 932 8 1093 0 1011 8 b 756 0 853 8 771 0 b 732 22 738 0 732 13 b 754 46 732 33 736 42 b 842 140 794 56 843 68 l 826 929 "},"N":{"ha":933,"x_min":0,"x_max":0,"o":"m 792 68 b 733 -3 792 19 774 -3 b 649 64 697 -3 675 10 l 226 925 b 207 921 213 953 207 949 l 207 140 b 319 46 207 72 278 56 b 342 22 338 42 342 33 b 318 0 342 13 336 0 b 182 8 303 0 242 8 b 44 0 135 8 60 0 b 21 22 26 0 21 13 b 43 46 21 33 25 42 b 131 140 81 54 131 68 l 131 1078 b 51 1144 131 1124 101 1133 b 25 1172 33 1149 25 1157 b 49 1194 25 1188 35 1194 b 165 1192 71 1194 107 1192 b 263 1194 203 1192 244 1194 b 315 1138 286 1194 294 1181 l 696 361 b 715 367 710 333 715 338 l 715 1054 b 600 1149 715 1126 660 1138 b 578 1172 582 1151 578 1161 b 601 1194 578 1182 583 1194 b 740 1186 617 1194 665 1186 b 889 1194 821 1186 874 1194 b 913 1172 907 1194 913 1182 b 890 1149 913 1161 908 1153 b 792 1054 844 1138 792 1124 l 792 68 "},"O":{"ha":976,"x_min":0,"x_max":0,"o":"m 489 -22 b 21 596 206 -22 21 221 b 489 1217 21 972 206 1217 b 956 596 772 1217 956 972 b 489 -22 956 221 772 -22 m 489 40 b 761 596 654 40 761 264 b 489 1154 761 929 654 1154 b 215 596 324 1154 215 929 b 489 40 215 264 324 40 "},"P":{"ha":819,"x_min":0,"x_max":0,"o":"m 139 1082 b 54 1147 139 1126 90 1140 b 28 1172 32 1151 28 1161 b 56 1194 28 1182 33 1194 b 225 1189 81 1194 146 1189 b 457 1194 319 1189 407 1194 b 799 850 664 1194 799 1058 b 454 474 799 631 663 474 b 344 504 404 474 371 488 b 319 490 326 515 319 510 l 319 140 b 407 46 319 68 367 56 b 429 22 425 42 429 33 b 406 0 429 13 424 0 b 229 8 390 0 308 8 b 53 0 150 8 68 0 b 29 22 35 0 29 13 b 51 46 29 33 33 42 b 139 140 93 56 139 68 l 139 1082 m 319 640 b 436 543 319 593 358 543 b 604 839 547 543 604 644 b 411 1139 604 1043 543 1139 b 319 1075 343 1139 319 1125 l 319 640 "},"Q":{"ha":1018,"x_min":0,"x_max":0,"o":"m 811 -67 b 935 -47 882 -67 918 -47 b 943 -57 942 -47 944 -51 b 763 -189 936 -85 865 -189 b 396 -86 647 -189 540 -86 b 182 -142 288 -86 221 -142 b 175 -122 172 -142 168 -136 b 343 10 190 -90 260 -25 b 42 596 157 88 42 300 b 510 1217 42 972 226 1217 b 976 596 793 1217 976 972 b 621 -8 976 272 840 47 b 811 -67 681 -36 736 -67 m 510 40 b 782 596 675 40 782 264 b 510 1154 782 929 675 1154 b 236 596 344 1154 236 929 b 510 40 236 264 344 40 "},"R":{"ha":940,"x_min":0,"x_max":0,"o":"m 139 1082 b 54 1147 139 1126 90 1140 b 28 1172 32 1151 28 1161 b 56 1194 28 1182 33 1194 b 240 1189 79 1194 124 1189 b 457 1194 331 1189 407 1194 b 799 888 664 1194 799 1074 b 594 579 799 738 721 628 b 736 313 646 536 699 404 b 824 100 757 260 793 169 b 908 47 839 65 867 57 b 933 22 926 43 933 36 b 908 0 933 8 925 0 l 807 3 b 719 0 771 3 732 0 b 656 33 686 0 667 10 b 553 304 629 93 572 247 b 381 564 482 510 446 564 b 319 521 335 564 319 556 l 319 140 b 407 46 319 68 368 54 b 429 22 425 42 429 33 b 406 0 429 13 424 0 b 229 8 390 0 308 8 b 53 0 150 8 68 0 b 29 22 35 0 29 13 b 51 46 29 33 33 42 b 139 140 89 54 139 68 l 139 1082 m 425 617 b 604 879 543 617 604 707 b 397 1139 604 1054 533 1139 b 319 1075 347 1139 319 1125 l 319 700 b 425 617 319 628 365 617 "},"S":{"ha":706,"x_min":0,"x_max":0,"o":"m 565 900 b 326 1154 546 1061 458 1154 b 172 999 229 1154 172 1094 b 671 317 172 732 671 718 b 328 -22 671 111 539 -22 b 42 101 149 -22 42 42 b 47 224 42 124 47 174 b 42 347 47 281 42 336 b 71 378 42 371 58 378 b 100 350 83 378 94 372 b 372 40 156 131 235 40 b 538 225 476 40 538 108 b 42 907 538 569 42 554 b 361 1217 42 1094 163 1217 b 622 1115 465 1217 622 1181 b 619 996 622 1096 619 1046 l 622 888 b 597 858 622 865 610 858 b 565 900 583 858 569 864 "},"T":{"ha":897,"x_min":0,"x_max":0,"o":"m 358 1058 b 297 1121 358 1099 340 1121 l 293 1121 b 68 949 129 1121 93 1022 b 38 914 58 919 51 914 b 15 938 24 914 15 922 l 17 1042 l 14 1153 b 65 1194 14 1183 31 1194 b 449 1178 132 1194 276 1178 b 832 1194 619 1178 778 1194 b 883 1153 867 1194 883 1183 l 881 1042 l 882 938 b 861 914 882 922 875 914 b 829 949 847 914 839 919 b 604 1121 804 1022 768 1121 l 600 1121 b 539 1058 557 1121 539 1099 l 539 140 b 626 46 539 68 590 54 b 649 22 644 42 649 33 b 625 0 649 13 643 0 b 449 8 610 0 528 8 b 272 0 369 8 288 0 b 249 22 254 0 249 13 b 271 46 249 33 253 42 b 358 140 310 54 358 68 l 358 1058 "},"U":{"ha":982,"x_min":0,"x_max":0,"o":"m 776 1054 b 689 1149 776 1126 729 1139 b 667 1172 671 1153 667 1161 b 690 1194 667 1182 672 1194 b 814 1186 706 1194 760 1186 b 938 1194 868 1186 922 1194 b 961 1172 956 1194 961 1182 b 939 1149 961 1161 957 1153 b 853 1054 900 1139 853 1126 l 853 307 b 544 -22 853 99 739 -22 b 138 307 288 -22 138 99 l 138 1054 b 50 1149 138 1126 86 1140 b 28 1172 32 1153 28 1161 b 51 1194 28 1182 33 1194 b 228 1186 67 1194 149 1186 b 404 1194 307 1186 389 1194 b 428 1172 422 1194 428 1182 b 406 1149 428 1161 424 1153 b 318 1054 369 1140 318 1126 l 318 293 b 563 47 318 132 401 47 b 776 293 703 47 776 132 l 776 1054 "},"V":{"ha":1058,"x_min":0,"x_max":0,"o":"m 151 1071 b 61 1144 136 1118 108 1133 b 35 1172 43 1149 35 1157 b 60 1196 35 1188 44 1196 b 250 1188 81 1196 156 1188 b 426 1194 333 1188 404 1194 b 454 1171 444 1194 454 1188 b 431 1144 454 1157 447 1149 b 353 1038 365 1128 332 1104 l 592 272 b 606 272 596 256 601 257 l 831 1039 b 735 1146 851 1108 811 1131 b 711 1171 718 1149 711 1157 b 736 1194 711 1186 721 1194 b 881 1189 751 1194 807 1189 b 1013 1194 953 1189 999 1194 b 1038 1172 1028 1194 1038 1188 b 1010 1144 1038 1157 1031 1150 b 918 1067 960 1131 933 1114 l 604 46 b 551 0 594 15 581 0 b 492 46 519 0 501 15 l 151 1071 "},"W":{"ha":1513,"x_min":0,"x_max":0,"o":"m 638 1064 b 544 1143 622 1114 597 1131 b 519 1171 526 1147 519 1156 b 543 1194 519 1186 529 1194 b 736 1188 571 1194 626 1188 b 918 1194 815 1188 896 1194 b 944 1169 936 1194 944 1185 b 922 1143 944 1157 939 1146 b 829 1056 839 1129 813 1111 l 1060 268 b 1069 268 1064 256 1067 257 l 1258 1039 b 1164 1143 1275 1106 1243 1131 b 1138 1171 1146 1146 1138 1157 b 1164 1194 1138 1186 1147 1194 b 1317 1189 1179 1194 1243 1189 b 1465 1196 1389 1189 1451 1196 b 1492 1171 1482 1196 1492 1186 b 1468 1143 1492 1156 1486 1147 b 1340 1049 1397 1125 1357 1113 l 1081 47 b 1019 0 1072 14 1053 0 b 953 47 985 0 963 14 l 807 518 b 796 519 803 531 800 531 l 636 47 b 574 0 625 14 608 0 b 506 47 539 0 517 14 l 154 1064 b 61 1143 136 1114 117 1129 b 35 1171 43 1147 35 1156 b 60 1194 35 1186 44 1194 b 238 1188 81 1194 161 1188 b 433 1194 326 1188 411 1194 b 460 1169 451 1194 460 1185 b 435 1143 460 1153 451 1146 b 349 1056 351 1131 331 1113 l 615 244 b 626 244 619 232 622 233 l 754 636 b 756 682 760 654 760 668 l 638 1064 "},"X":{"ha":1044,"x_min":0,"x_max":0,"o":"m 278 125 b 367 46 253 79 282 58 b 392 22 386 43 392 35 b 369 0 392 8 383 0 b 207 4 331 0 260 4 b 61 0 160 4 101 0 b 35 22 46 0 35 7 b 60 46 35 36 46 43 b 189 117 126 58 165 72 l 436 568 b 436 590 440 576 440 583 l 182 1078 b 74 1149 157 1125 128 1139 b 46 1174 57 1151 46 1158 b 69 1194 46 1188 54 1194 b 263 1189 100 1194 192 1189 b 460 1194 347 1189 428 1194 b 485 1174 475 1194 485 1186 b 458 1149 485 1160 476 1153 b 392 1061 386 1131 365 1111 l 546 764 b 563 764 551 751 557 753 l 714 1061 b 644 1151 740 1113 714 1133 b 618 1176 628 1156 618 1163 b 639 1194 618 1189 626 1194 b 786 1189 682 1194 733 1189 b 939 1194 833 1189 904 1194 b 961 1175 954 1194 961 1188 b 938 1151 961 1160 951 1154 b 801 1067 872 1139 829 1119 l 599 681 b 599 658 594 672 594 665 l 876 121 b 994 46 900 75 932 61 b 1024 21 1017 40 1024 35 b 1001 0 1024 7 1017 0 b 836 4 943 0 907 4 b 601 0 774 4 693 0 b 578 22 586 0 578 8 b 601 44 578 36 586 42 b 679 125 672 58 703 79 l 490 486 b 474 486 485 499 479 497 l 278 125 "},"Y":{"ha":1039,"x_min":0,"x_max":0,"o":"m 783 1050 b 704 1149 811 1108 783 1133 b 678 1174 688 1151 678 1160 b 700 1194 678 1186 688 1194 b 850 1188 726 1194 774 1188 b 994 1194 928 1188 974 1194 b 1018 1175 1010 1194 1018 1188 b 993 1151 1018 1161 1010 1156 b 872 1063 936 1138 900 1121 l 632 558 l 632 140 b 719 46 632 68 682 54 b 742 22 738 42 742 33 b 718 0 742 13 736 0 b 542 8 703 0 635 8 b 365 0 449 8 381 0 b 342 22 347 0 342 13 b 364 46 342 33 346 42 b 451 140 401 54 451 68 l 451 515 l 167 1076 b 65 1149 144 1119 114 1138 b 35 1174 49 1153 35 1157 b 60 1194 35 1188 44 1194 b 242 1188 90 1194 154 1188 b 443 1194 349 1188 410 1194 b 468 1174 458 1194 468 1188 b 440 1149 468 1160 460 1153 b 376 1049 369 1132 349 1106 l 575 640 b 592 640 581 629 586 629 l 783 1050 "},"Z":{"ha":819,"x_min":0,"x_max":0,"o":"m 418 1189 b 779 1194 564 1189 718 1194 b 806 1172 796 1194 806 1186 b 800 1151 806 1167 804 1160 l 250 89 b 264 67 242 74 247 67 l 490 67 b 736 274 674 67 707 146 b 764 308 743 303 751 308 b 788 274 776 308 788 301 l 785 153 b 788 57 785 108 788 81 b 717 0 788 14 765 0 b 371 4 658 0 528 4 b 38 0 231 4 94 0 b 14 18 22 0 14 7 b 19 36 14 25 17 31 l 574 1106 b 560 1128 582 1121 576 1128 l 354 1128 b 129 963 176 1128 150 1036 b 97 928 121 933 111 928 b 75 950 85 928 75 935 b 78 1051 75 981 78 1011 b 75 1153 78 1090 75 1119 b 126 1194 75 1183 92 1194 b 418 1189 192 1194 318 1189 "},"a":{"ha":724,"x_min":0,"x_max":0,"o":"m 35 167 b 431 564 35 300 172 471 b 447 589 442 568 447 576 l 447 731 b 374 861 447 814 422 861 b 229 703 313 861 265 786 b 143 624 206 649 182 624 b 82 689 108 624 82 650 b 385 918 82 785 246 918 b 617 750 525 918 617 851 l 617 138 b 647 72 617 100 624 72 b 678 83 657 72 671 79 b 706 89 688 89 697 93 b 714 61 714 85 719 76 b 594 0 700 22 646 0 b 464 69 535 0 486 28 b 454 71 461 75 458 75 b 250 -21 400 8 321 -21 b 35 167 122 -21 35 53 m 217 189 b 326 68 217 113 257 68 b 447 214 386 68 447 129 l 447 494 b 436 503 447 503 443 506 b 217 189 286 443 217 293 "},"b":{"ha":840,"x_min":0,"x_max":0,"o":"m 274 167 b 418 40 274 83 333 40 b 639 475 569 40 639 178 b 450 842 639 715 574 842 b 274 667 353 842 274 761 l 274 167 m 28 1247 b 54 1269 28 1258 35 1267 b 236 1336 115 1278 181 1299 b 260 1347 249 1344 253 1347 b 274 1331 269 1347 274 1343 l 274 849 b 283 846 274 840 276 840 b 467 918 329 886 393 918 b 819 474 681 918 819 743 b 447 -22 819 161 682 -22 b 204 17 315 -22 250 17 b 144 -12 175 17 158 4 b 122 -26 138 -21 132 -26 b 101 -4 113 -26 101 -22 b 107 72 101 11 107 39 l 107 1158 b 53 1221 107 1206 83 1214 b 28 1247 33 1225 28 1233 "},"c":{"ha":644,"x_min":0,"x_max":0,"o":"m 624 665 b 600 647 624 654 613 647 b 572 668 585 647 578 656 b 390 856 526 772 481 856 b 201 463 271 856 201 711 b 439 68 201 214 289 68 b 583 119 494 68 542 85 b 606 129 592 126 599 129 b 622 122 613 129 618 126 b 631 106 628 118 631 113 b 622 85 631 99 628 92 b 394 -22 569 14 492 -22 b 21 438 168 -22 21 160 b 394 918 21 729 168 918 b 624 806 522 918 624 856 b 621 743 624 788 621 774 b 624 665 621 713 624 683 "},"d":{"ha":840,"x_min":0,"x_max":0,"o":"m 740 197 b 797 111 740 143 754 128 b 819 89 813 106 819 100 b 792 67 819 76 811 69 b 604 -14 721 56 647 25 b 588 -22 597 -21 594 -22 b 574 -7 579 -22 574 -18 l 574 64 b 565 65 574 72 571 72 b 364 -22 519 13 453 -22 b 21 436 147 -22 21 147 b 404 918 21 728 172 918 b 558 874 458 918 513 904 b 574 882 569 865 574 869 l 574 1157 b 518 1222 574 1204 549 1214 b 494 1247 503 1226 494 1232 b 521 1271 494 1260 503 1268 b 704 1336 579 1281 661 1299 b 725 1347 714 1344 718 1347 b 740 1331 735 1347 740 1343 l 740 197 m 201 450 b 419 63 201 206 282 63 b 574 228 510 63 574 138 l 574 669 b 411 856 574 771 507 856 b 201 450 279 856 201 706 "},"e":{"ha":678,"x_min":0,"x_max":0,"o":"m 386 579 b 528 700 475 579 528 624 b 396 849 528 790 474 849 b 210 593 294 849 231 761 b 221 579 208 583 213 579 l 386 579 m 21 433 b 383 918 21 726 164 918 b 664 581 553 918 664 793 b 618 510 664 528 650 510 l 215 510 b 203 500 207 510 203 506 l 201 446 b 442 68 201 217 290 68 b 618 144 514 68 563 94 b 651 149 629 154 642 156 b 657 118 661 142 663 129 b 396 -21 615 33 513 -21 b 21 433 168 -21 21 158 "},"f":{"ha":550,"x_min":0,"x_max":0,"o":"m 479 896 b 517 863 501 896 517 883 b 479 826 517 839 507 826 l 335 826 b 304 801 314 826 304 818 l 304 140 b 378 46 304 68 347 53 b 400 22 396 42 400 33 b 376 0 400 13 394 0 b 221 8 361 0 293 8 b 65 0 149 8 81 0 b 42 22 47 0 42 13 b 64 46 42 33 46 42 b 138 140 94 53 138 68 l 138 800 b 113 825 138 818 129 825 l 74 824 b 49 850 60 824 49 833 b 68 876 49 863 53 871 l 115 894 b 138 924 131 901 138 911 l 138 974 b 439 1346 138 1189 264 1346 b 633 1186 557 1346 633 1271 b 575 1118 633 1144 610 1118 b 504 1171 543 1118 519 1131 b 413 1283 479 1239 460 1283 b 304 965 353 1283 304 1204 l 304 921 b 336 896 304 903 315 896 l 479 896 "},"g":{"ha":801,"x_min":0,"x_max":0,"o":"m 414 271 b 239 199 368 271 239 249 b 289 163 239 176 257 163 b 531 182 364 163 443 182 b 788 -19 701 182 788 113 b 374 -361 788 -219 615 -361 b 28 -154 165 -361 28 -281 b 160 24 28 -78 78 -25 b 160 42 168 29 168 35 b 97 154 126 72 97 122 b 246 299 97 236 171 276 b 246 308 254 301 254 304 b 79 596 143 360 79 463 b 419 918 79 792 214 918 b 576 886 478 918 531 907 b 632 872 597 878 607 872 l 750 872 b 788 842 775 872 788 863 b 747 808 788 819 776 808 l 679 808 b 749 596 724 754 749 682 b 419 271 749 399 619 271 l 414 271 m 419 336 b 568 596 514 336 568 432 b 419 856 568 760 514 856 b 260 596 318 856 260 760 b 419 336 260 432 318 336 m 185 -117 b 404 -294 185 -229 267 -294 b 685 -121 564 -294 685 -218 b 463 28 685 -22 607 28 b 233 11 394 28 294 14 b 185 -117 207 -11 185 -50 "},"h":{"ha":872,"x_min":0,"x_max":0,"o":"m 124 1164 b 78 1222 124 1203 108 1214 b 58 1246 63 1226 58 1235 b 79 1268 58 1256 61 1265 b 257 1338 133 1276 219 1300 b 275 1347 265 1346 268 1347 b 290 1333 286 1347 290 1343 l 290 806 b 303 803 290 793 294 793 b 519 918 361 872 436 918 b 756 651 668 918 756 819 l 756 140 b 829 46 756 68 799 53 b 851 22 847 42 851 33 b 828 0 851 13 846 0 b 672 8 813 0 744 8 b 517 0 600 8 532 0 b 493 22 499 0 493 13 b 515 46 493 33 497 42 b 589 140 546 53 589 68 l 589 651 b 464 817 589 760 546 817 b 290 619 368 817 290 724 l 290 140 b 364 46 290 68 333 53 b 386 22 382 42 386 33 b 363 0 386 13 381 0 b 206 8 347 0 279 8 b 51 0 135 8 67 0 b 28 22 33 0 28 13 b 50 46 28 33 32 42 b 124 140 81 53 124 68 l 124 1164 "},"i":{"ha":414,"x_min":0,"x_max":0,"o":"m 214 988 b 125 1092 163 988 125 1032 b 214 1194 125 1151 163 1194 b 303 1092 265 1194 303 1151 b 214 988 303 1032 265 988 m 297 140 b 371 46 297 68 340 53 b 393 22 389 42 393 33 b 369 0 393 13 388 0 b 213 8 354 0 286 8 b 58 0 142 8 74 0 b 35 22 40 0 35 13 b 57 46 35 33 39 42 b 131 140 88 53 131 68 l 131 713 b 85 771 131 751 115 763 b 65 794 69 775 65 783 b 86 817 65 804 68 814 b 264 886 140 825 226 849 b 282 896 272 894 275 896 b 297 882 293 896 297 892 l 297 140 "},"j":{"ha":436,"x_min":0,"x_max":0,"o":"m 188 713 b 142 771 188 751 172 763 b 122 794 126 775 122 783 b 143 817 122 804 125 814 b 321 886 197 825 283 849 b 339 896 329 894 332 896 b 354 882 350 896 354 892 l 354 -15 b 92 -362 354 -251 249 -362 b -69 -257 -6 -362 -69 -321 b -8 -197 -69 -221 -44 -197 b 135 -297 61 -197 86 -297 b 188 -82 168 -297 188 -262 l 188 713 m 271 988 b 182 1092 219 988 182 1032 b 271 1194 182 1151 219 1194 b 360 1092 322 1194 360 1151 b 271 988 360 1032 322 988 "},"k":{"ha":864,"x_min":0,"x_max":0,"o":"m 514 0 b 489 21 499 0 489 8 b 513 43 489 33 497 39 b 543 108 550 53 563 76 l 331 451 b 317 453 326 458 322 458 l 303 438 b 297 421 299 433 297 428 l 297 140 b 371 46 297 68 340 53 b 393 22 389 42 393 33 b 369 0 393 13 388 0 b 213 8 354 0 286 8 b 58 0 142 8 74 0 b 35 22 40 0 35 13 b 57 46 35 33 39 42 b 131 140 88 53 131 68 l 131 1164 b 85 1222 131 1203 115 1214 b 65 1246 69 1226 65 1235 b 86 1268 65 1256 68 1265 b 264 1338 140 1276 226 1300 b 282 1347 272 1346 275 1347 b 297 1333 293 1347 297 1343 l 297 561 b 310 557 297 549 301 547 l 504 757 b 461 849 551 807 528 826 b 440 874 449 853 440 860 b 464 896 440 888 450 896 b 618 889 489 896 539 889 b 764 896 688 889 739 896 b 788 876 779 896 788 890 b 765 853 788 864 781 857 b 625 776 699 835 668 821 l 447 589 b 446 569 442 583 442 576 l 732 124 b 832 46 765 71 796 58 b 857 21 849 40 857 35 b 829 0 857 8 847 0 b 671 8 799 0 742 8 b 514 0 604 8 546 0 "},"l":{"ha":414,"x_min":0,"x_max":0,"o":"m 297 140 b 371 46 297 68 340 53 b 393 22 389 42 393 33 b 369 0 393 13 388 0 b 213 8 354 0 286 8 b 58 0 142 8 74 0 b 35 22 40 0 35 13 b 57 46 35 33 39 42 b 131 140 88 53 131 68 l 131 1164 b 85 1222 131 1203 115 1214 b 65 1246 69 1226 65 1235 b 86 1268 65 1256 68 1265 b 264 1338 140 1276 226 1300 b 282 1347 272 1346 275 1347 b 297 1333 293 1347 297 1343 l 297 140 "},"m":{"ha":1317,"x_min":0,"x_max":0,"o":"m 124 732 b 78 790 124 771 108 782 b 58 814 63 794 58 803 b 79 836 58 824 61 833 b 257 906 133 844 219 868 b 275 915 265 914 268 915 b 290 901 286 915 290 911 l 290 811 b 301 807 290 799 294 799 b 513 918 357 875 432 918 b 728 778 618 918 693 868 b 738 776 731 771 733 771 b 964 918 793 861 871 918 b 1207 651 1113 918 1207 819 l 1207 140 b 1281 46 1207 68 1250 53 b 1303 22 1299 42 1303 33 b 1279 0 1303 13 1297 0 b 1124 8 1264 0 1196 8 b 968 0 1051 8 983 0 b 944 22 950 0 944 13 b 967 46 944 33 949 42 b 1040 140 997 53 1040 68 l 1040 651 b 911 817 1040 760 990 817 b 749 632 825 817 749 739 l 749 140 b 822 46 749 68 792 53 b 844 22 840 42 844 33 b 821 0 844 13 839 0 b 665 8 806 0 738 8 b 510 0 593 8 525 0 b 486 22 492 0 486 13 b 508 46 486 33 490 42 b 582 140 539 53 582 68 l 582 651 b 449 817 582 760 538 817 b 290 667 371 817 290 760 l 290 140 b 364 46 290 68 333 53 b 386 22 382 42 386 33 b 363 0 386 13 381 0 b 206 8 347 0 279 8 b 51 0 135 8 67 0 b 28 22 33 0 28 13 b 50 46 28 33 32 42 b 124 140 81 53 124 68 l 124 732 "},"n":{"ha":872,"x_min":0,"x_max":0,"o":"m 124 732 b 78 790 124 771 108 782 b 58 814 63 794 58 803 b 79 836 58 824 61 833 b 257 906 133 844 219 868 b 275 915 265 914 268 915 b 290 901 286 915 290 911 l 290 806 b 306 806 290 793 296 794 b 519 918 364 874 438 918 b 756 651 668 918 756 819 l 756 140 b 829 46 756 68 799 53 b 851 22 847 42 851 33 b 828 0 851 13 846 0 b 672 8 813 0 744 8 b 517 0 600 8 532 0 b 493 22 499 0 493 13 b 515 46 493 33 497 42 b 589 140 546 53 589 68 l 589 651 b 464 817 589 760 546 817 b 290 625 368 817 290 732 l 290 140 b 364 46 290 68 333 53 b 386 22 382 42 386 33 b 363 0 386 13 381 0 b 206 8 347 0 279 8 b 51 0 135 8 67 0 b 28 22 33 0 28 13 b 50 46 28 33 32 42 b 124 140 81 53 124 68 l 124 732 "},"o":{"ha":797,"x_min":0,"x_max":0,"o":"m 399 -22 b 21 458 169 -22 21 167 b 399 918 21 736 169 918 b 776 458 628 918 776 736 b 399 -22 776 167 628 -22 m 399 40 b 596 458 518 40 596 206 b 399 856 596 699 518 856 b 201 458 279 856 201 699 b 399 40 201 206 279 40 "},"p":{"ha":871,"x_min":0,"x_max":0,"o":"m 131 699 b 74 785 131 753 117 768 b 51 807 58 790 51 796 b 79 829 51 819 60 826 b 267 910 150 840 224 871 b 283 918 274 917 276 918 b 297 903 292 918 297 914 l 297 817 b 306 814 297 808 300 807 b 519 918 353 871 428 918 b 850 460 725 918 850 749 b 467 -22 850 168 699 -22 b 311 13 415 -22 357 -12 b 297 3 301 18 297 14 l 297 -200 b 397 -294 297 -272 343 -283 b 421 -318 415 -299 421 -307 b 397 -340 421 -328 415 -340 b 214 -332 382 -340 286 -332 b 58 -340 142 -332 74 -340 b 35 -318 40 -340 35 -328 b 57 -294 35 -307 39 -299 b 131 -200 88 -287 131 -272 l 131 699 m 297 196 b 464 40 297 101 375 40 b 669 464 599 40 669 186 b 479 828 669 703 603 828 b 297 638 385 828 297 742 l 297 196 "},"q":{"ha":850,"x_min":0,"x_max":0,"o":"m 567 35 b 557 44 567 47 564 50 b 374 -22 510 6 447 -22 b 21 422 160 -22 21 153 b 393 918 21 735 158 918 b 636 879 525 918 590 879 b 696 908 665 879 682 892 b 718 922 703 917 708 922 b 739 900 728 922 739 918 b 733 824 739 885 733 857 l 733 -200 b 807 -294 733 -272 776 -287 b 829 -318 825 -299 829 -307 b 806 -340 829 -328 824 -340 b 650 -332 790 -340 722 -332 b 467 -340 578 -332 482 -340 b 443 -318 449 -340 443 -328 b 467 -294 443 -307 449 -297 b 567 -200 513 -286 567 -272 l 567 35 m 201 454 b 410 54 201 181 268 54 b 567 264 510 54 567 138 l 567 708 b 425 856 567 793 515 856 b 201 454 278 856 201 718 "},"r":{"ha":586,"x_min":0,"x_max":0,"o":"m 124 732 b 78 790 124 771 108 782 b 58 814 63 794 58 803 b 79 836 58 824 61 833 b 257 906 133 844 219 868 b 275 915 265 914 268 915 b 290 901 286 915 290 911 l 290 792 b 299 790 290 779 293 779 b 469 918 338 865 403 918 b 579 811 536 918 579 876 b 517 736 579 764 556 736 b 397 811 447 736 443 811 b 306 719 363 811 328 771 b 290 638 294 692 290 665 l 290 140 b 392 46 290 68 339 57 b 414 22 410 42 414 33 b 390 0 414 13 408 0 b 206 8 375 0 286 8 b 51 0 135 8 67 0 b 28 22 33 0 28 13 b 50 46 28 33 32 42 b 124 140 81 53 124 68 l 124 732 "},"s":{"ha":592,"x_min":0,"x_max":0,"o":"m 268 -22 b 50 53 146 -22 50 10 b 53 143 50 74 53 99 b 50 233 53 185 50 213 b 72 263 50 256 61 263 b 97 239 85 263 92 254 b 290 40 138 128 192 40 b 419 171 369 40 419 89 b 49 663 419 421 49 389 b 319 918 49 832 160 918 b 504 851 428 918 504 894 b 501 775 504 836 501 807 b 504 706 501 744 504 722 b 486 685 504 693 499 685 b 461 708 474 685 468 693 b 289 857 417 806 358 857 b 182 742 222 857 182 811 b 557 242 182 543 557 563 b 268 -22 557 74 435 -22 "},"t":{"ha":478,"x_min":0,"x_max":0,"o":"m 293 -22 b 110 176 178 -22 110 51 l 110 807 b 97 825 110 819 106 825 l 58 822 b 35 847 44 822 35 833 b 54 875 35 860 39 868 b 240 1044 122 904 197 969 b 257 1053 243 1050 249 1053 b 276 1035 268 1053 276 1049 l 276 921 b 308 896 276 903 288 896 l 407 896 b 447 863 433 896 447 886 b 407 826 447 839 439 826 l 307 826 b 276 801 286 826 276 818 l 276 224 b 358 64 276 114 303 64 b 426 99 392 64 407 79 b 458 99 438 110 451 106 b 457 65 467 90 465 78 b 293 -22 417 6 364 -22 "},"u":{"ha":842,"x_min":0,"x_max":0,"o":"m 124 756 b 50 850 124 828 81 843 b 28 874 32 854 28 863 b 51 896 28 883 33 896 b 163 889 67 896 118 889 b 267 896 214 889 250 896 b 290 874 283 896 290 889 l 290 244 b 421 79 290 136 335 79 b 574 183 488 79 543 124 b 589 254 585 207 589 231 l 589 756 b 515 850 589 828 546 843 b 493 874 497 854 493 863 b 517 896 493 883 499 896 b 628 889 532 896 583 889 b 732 896 679 889 715 896 b 756 874 749 896 756 889 l 756 164 b 801 106 756 125 771 114 b 821 82 817 101 821 93 b 800 60 821 72 818 63 b 622 -10 746 51 660 28 b 604 -19 614 -18 611 -19 b 589 -6 593 -19 589 -15 l 589 90 b 579 96 589 103 586 104 b 360 -22 521 25 444 -22 b 124 244 211 -22 124 76 l 124 756 "},"v":{"ha":831,"x_min":0,"x_max":0,"o":"m 96 789 b 33 850 81 832 64 840 b 7 875 15 856 7 863 b 29 896 7 889 15 896 b 186 890 56 896 108 890 b 353 896 260 890 335 896 b 376 876 369 896 376 888 b 349 850 376 863 367 854 b 282 758 290 836 263 819 l 451 229 b 471 229 458 208 464 211 l 638 767 b 558 851 653 817 629 838 b 532 875 540 856 532 863 b 558 896 532 889 542 896 b 682 890 574 896 613 890 b 801 896 746 890 788 896 b 824 879 815 896 824 890 b 796 854 824 868 815 861 b 722 776 767 843 742 833 l 485 64 b 421 0 469 18 453 0 b 351 64 388 0 368 18 l 96 789 "},"w":{"ha":1246,"x_min":0,"x_max":0,"o":"m 547 776 b 468 850 532 819 517 835 b 440 876 450 856 440 863 b 465 896 440 890 451 896 b 626 889 483 896 553 889 b 800 896 718 889 782 896 b 824 878 815 896 824 890 b 796 853 824 867 817 858 b 728 758 738 836 711 811 l 890 232 b 907 233 896 211 901 214 l 1054 760 b 978 851 1068 811 1046 836 b 949 876 958 856 949 863 b 974 896 949 889 957 896 b 1096 890 989 896 1033 890 b 1217 896 1165 890 1203 896 b 1239 878 1231 896 1239 890 b 1210 851 1239 864 1229 857 b 1138 776 1167 839 1150 819 l 928 60 b 861 0 915 19 899 0 b 790 60 822 0 804 19 l 653 467 l 511 60 b 444 0 497 19 482 0 b 371 60 404 0 386 19 l 104 788 b 38 849 89 831 68 839 b 7 875 19 854 7 860 b 32 896 7 890 18 896 b 190 889 46 896 117 889 b 364 896 292 889 342 896 b 388 876 381 896 388 889 b 361 851 388 864 381 857 b 290 768 303 835 275 813 l 475 219 b 494 219 482 199 488 201 l 608 572 b 608 596 611 581 611 588 l 547 776 "},"x":{"ha":786,"x_min":0,"x_max":0,"o":"m 210 110 b 269 42 188 69 207 51 b 292 21 286 39 292 33 b 272 0 292 7 286 0 b 164 7 240 0 217 7 b 29 0 108 7 75 0 b 7 21 15 0 7 6 b 28 42 7 35 14 39 b 129 119 72 50 104 75 l 293 414 b 293 454 301 429 300 442 l 117 786 b 40 853 99 819 85 842 b 13 876 22 857 13 863 b 36 896 13 889 21 896 b 190 889 58 896 86 889 b 344 896 260 889 324 896 b 369 876 361 896 369 889 b 346 854 369 865 364 858 b 314 768 292 843 288 818 l 401 604 b 419 604 407 592 413 593 l 518 776 b 479 853 543 819 526 838 b 454 878 465 857 454 864 b 475 896 454 890 463 896 b 592 889 493 896 524 889 b 710 896 656 889 692 896 b 732 876 724 896 732 889 b 708 853 732 863 722 857 b 606 776 660 839 632 824 l 463 526 b 464 489 456 514 457 501 l 658 124 b 754 42 683 76 711 49 b 779 21 772 39 778 33 b 756 0 779 7 774 0 b 619 7 713 0 682 7 b 433 0 524 7 479 0 b 411 21 418 0 411 8 b 433 42 411 35 418 40 b 479 110 489 47 503 67 l 357 338 b 339 338 351 350 346 349 l 210 110 "},"y":{"ha":796,"x_min":0,"x_max":0,"o":"m 99 782 b 38 849 83 825 76 836 b 7 875 19 854 7 860 b 31 896 7 889 17 896 b 178 890 47 896 101 890 b 338 896 256 890 318 896 b 364 874 356 896 364 888 b 336 849 364 861 357 853 b 275 781 281 838 261 822 l 435 297 b 451 297 440 281 446 282 l 603 764 b 524 853 622 822 588 836 b 497 876 507 857 497 864 b 521 896 497 889 506 896 b 647 890 536 896 583 890 b 767 896 711 890 753 896 b 789 876 781 896 789 889 b 761 851 789 864 781 857 b 688 776 731 843 704 829 l 440 21 b 151 -362 368 -201 307 -362 b 38 -279 82 -362 38 -329 b 100 -217 38 -242 63 -217 b 196 -274 150 -217 161 -274 b 342 -29 235 -274 279 -189 b 357 33 351 -4 357 14 b 346 86 357 51 353 67 l 99 782 "},"z":{"ha":640,"x_min":0,"x_max":0,"o":"m 410 811 b 394 836 418 829 413 836 l 275 836 b 104 722 178 836 133 807 b 78 692 96 699 90 692 b 57 717 65 692 57 700 b 60 796 57 732 60 757 b 57 872 60 828 57 858 b 88 896 57 889 68 896 b 336 892 125 896 217 892 b 590 896 478 892 560 896 b 619 874 608 896 619 889 b 614 853 619 868 618 861 l 235 85 b 250 60 226 67 232 60 l 397 60 b 572 197 521 60 544 113 b 597 232 582 226 588 232 b 614 203 607 232 614 225 l 613 117 l 614 26 b 579 0 614 8 604 0 b 321 4 544 0 431 4 b 47 0 199 4 85 0 b 21 19 31 0 21 7 b 25 36 21 24 22 29 l 410 811 "},".":{"ha":278,"x_min":0,"x_max":0,"o":"m 144 0 b 56 104 93 0 56 44 b 144 207 56 164 93 207 b 233 104 196 207 233 164 b 144 0 233 44 196 0 "},",":{"ha":278,"x_min":0,"x_max":0,"o":"m 119 -194 b 85 -193 110 -203 96 -206 b 90 -157 75 -182 78 -169 b 154 0 135 -114 206 0 b 82 88 111 0 82 35 b 160 174 82 140 113 174 b 242 67 211 174 242 135 b 119 -194 242 -14 213 -114 "},":":{"ha":403,"x_min":0,"x_max":0,"o":"m 239 0 b 150 104 188 0 150 44 b 239 207 150 164 188 207 b 328 104 290 207 328 164 b 239 0 328 44 290 0 m 239 458 b 150 563 188 458 150 503 b 239 665 150 622 188 665 b 328 563 290 665 328 622 b 239 458 328 503 290 458 "},"!":{"ha":556,"x_min":0,"x_max":0,"o":"m 192 1097 b 285 1194 186 1158 221 1194 b 378 1097 346 1194 383 1158 l 314 371 b 286 344 313 354 304 344 b 256 371 268 344 257 354 l 192 1097 m 285 0 b 196 104 233 0 196 44 b 285 207 196 164 233 207 b 374 104 336 207 374 164 b 285 0 374 44 336 0 "},"?":{"ha":694,"x_min":0,"x_max":0,"o":"m 244 422 b 454 974 244 713 454 763 b 343 1142 454 1079 414 1142 b 158 1013 236 1142 256 1013 b 71 1100 103 1013 71 1053 b 257 1217 71 1172 144 1217 b 629 903 482 1217 629 1093 b 313 367 629 663 313 665 b 288 338 313 349 304 338 b 244 422 261 338 244 374 m 288 0 b 199 104 236 0 199 44 b 288 207 199 164 236 207 b 376 104 339 207 376 164 b 288 0 376 44 339 0 "},"•":{"ha":406,"x_min":0,"x_max":0,"o":"m 203 324 b 69 479 126 324 69 390 b 203 633 69 569 126 633 b 336 479 279 633 336 569 b 203 324 336 390 279 324 "},"/":{"ha":833,"x_min":0,"x_max":0,"o":"m 165 -103 b 126 -131 158 -122 151 -131 l 76 -131 b 57 -96 58 -131 49 -118 l 522 1247 b 554 1271 528 1264 535 1271 l 613 1271 b 631 1242 631 1271 638 1260 l 165 -103 "},"-":{"ha":833,"x_min":0,"x_max":0,"o":"m 235 428 b 256 449 235 440 243 449 l 563 449 b 583 428 575 449 583 440 l 583 386 b 563 365 583 374 575 365 l 256 365 b 235 386 243 365 235 374 l 235 428 "},"&":{"ha":1042,"x_min":0,"x_max":0,"o":"m 894 122 b 1008 42 938 71 967 51 b 1033 19 1025 38 1033 32 b 1007 0 1033 6 1025 0 b 856 7 963 0 926 7 b 667 0 793 7 722 0 b 644 21 651 0 644 8 b 669 42 644 35 654 39 b 668 125 731 53 703 86 l 635 165 b 357 -22 572 38 483 -22 b 29 328 164 -22 29 125 b 250 675 29 469 103 575 b 149 967 182 788 149 885 b 424 1217 149 1117 278 1217 b 674 993 589 1217 674 1124 b 433 710 674 889 618 815 b 676 392 453 681 557 544 b 728 556 699 442 728 524 b 610 653 728 619 683 638 b 589 679 596 656 589 667 b 610 703 589 692 599 703 b 785 697 635 703 686 697 b 938 703 875 697 908 703 b 958 681 951 703 958 692 b 931 653 958 667 951 657 b 799 535 867 640 835 618 l 714 344 b 894 122 775 268 838 190 m 310 1010 b 408 758 310 933 354 850 b 528 990 497 831 528 883 b 425 1153 528 1093 490 1153 b 310 1010 356 1153 310 1096 m 188 350 b 390 61 188 160 276 61 b 599 210 483 61 557 115 b 282 622 489 349 307 586 b 188 350 231 567 188 481 "},"$":{"ha":764,"x_min":0,"x_max":0,"o":"m 565 900 b 392 1146 549 1033 488 1119 l 392 729 b 671 317 525 638 671 533 b 392 -18 671 133 565 7 l 392 -75 b 354 -110 392 -103 368 -110 b 315 -75 340 -110 315 -103 l 315 -22 b 42 101 143 -19 42 43 b 47 224 42 124 47 174 b 42 347 47 281 42 336 b 71 378 42 371 58 378 b 100 350 83 378 94 372 b 315 46 147 163 213 69 l 315 546 b 42 907 183 635 42 718 b 315 1214 42 1079 144 1197 l 315 1275 b 354 1310 315 1304 340 1310 b 392 1275 368 1310 392 1304 l 392 1215 b 622 1115 493 1210 622 1175 b 619 996 622 1096 619 1046 l 622 888 b 597 858 622 865 610 858 b 565 900 583 858 569 864 m 172 999 b 315 782 172 904 235 842 l 315 1154 b 172 999 225 1150 172 1090 m 392 42 b 538 225 483 49 538 115 b 392 490 538 349 474 426 l 392 42 "}}}
